<?xml version="1.0" encoding="iso-8859-1"?>
<!-- Generator: Adobe Illustrator 21.0.2, SVG Export Plug-In . SVG Version: 6.00 Build 0)  -->
<svg version="1.1" xmlns="http://www.w3.org/2000/svg" xmlns:xlink="http://www.w3.org/1999/xlink" x="0px" y="0px"
	 viewBox="0 0 64 64" style="enable-background:new 0 0 64 64;" xml:space="preserve">
<g id="crocus">
</g>
<g id="cactus">
</g>
<g id="anemone_1_">
</g>
<g id="twinflower">
</g>
<g id="_angelonia">
</g>
<g id="magnolia">
</g>
<g id="rosella">
</g>
<g id="amaryllis">
</g>
<g id="lily_calla">
</g>
<g id="cleome">
</g>
<g id="euphorbia">
</g>
<g id="rafflesia">
</g>
<g id="krisan">
</g>
<g id="orchid">
	<path d="M62.5625,15.4141c-0.6318-1.3077-1.9082-2.2754-3.7705-2.8179c-4.0576-0.8394-8.2813,2.8823-12.3652,6.4834
		c-0.6416,0.5659-1.2911,1.1313-1.9405,1.6865c1.6475-3.8061,1.7647-7.2129,0.9658-9.7285
		c-1.0302-3.2436-3.5771-5.2588-6.6464-5.2588c-1.6407,0-4.0987,0.5757-6.8008,3.1841c-2.7031-2.6089-5.1611-3.1841-6.8018-3.1841
		c-3.0693,0-5.6152,2.0151-6.6455,5.2583c-0.7998,2.5191-0.6816,5.9317,0.9727,9.7442c-0.6563-0.5606-1.3115-1.1314-1.96-1.7027
		c-4.081-3.6006-8.2949-7.3218-12.4433-6.4629c-1.7832,0.5239-3.0596,1.4927-3.6905,2.8013
		c-0.6162,1.2778-0.584,2.772,0.1192,4.4946c0.5605,1.1773,1.6201,1.9654,2.9062,2.1612c1.5869,0.2446,3.2842-0.4537,4.6358-1.9112
		c0.375-0.4053,0.3515-1.0381-0.0538-1.4136c-0.4052-0.3754-1.0371-0.3525-1.413,0.0533c-0.8946,0.9648-1.9405,1.4375-2.8682,1.2944
		C4.1338,20,3.6357,19.6289,3.3838,19.1045c-0.457-1.1235-0.5059-2.0723-0.1455-2.8189c0.4775-0.9921,1.5976-1.5,2.374-1.7314
		c3.0859-0.6377,6.9229,2.749,10.6357,6.0239c1.6446,1.4502,3.3331,2.9224,5.0059,4.1094
		c-7.9785,5.8203-9.665,12.3047-8.3916,16.0654c0.876,2.586,3.0977,4.0625,5.8525,4.0655
		c-2.5273,3.9345-3.0507,7.2187-2.3203,9.5175c0.7735,2.4327,2.9141,3.8858,5.7276,3.8858c3.1435,0,6.6894-1.793,9.8506-4.9531
		c3.1591,3.1591,6.7041,4.9521,9.8476,4.9531h0.001c2.8135,0,4.9541-1.4522,5.7275-3.8848
		c0.7315-2.3008,0.2071-5.5879-2.3242-9.5264c2.7529,0.0069,4.9844-1.4687,5.8789-4.0742
		c1.2861-3.7519-0.3867-10.2251-8.3672-16.0434c1.6748-1.187,3.3672-2.6616,5.0127-4.1133
		c3.7149-3.2754,7.5498-6.6592,10.5586-6.0449c0.8555,0.2509,1.9746,0.7583,2.4541,1.7495
		c0.3604,0.7471,0.3125,1.6963-0.1201,2.7671c-0.2754,0.5771-0.7744,0.9482-1.4043,1.0444
		c-0.9297,0.1421-1.9756-0.3301-2.8701-1.2944c-0.376-0.4058-1.0088-0.4287-1.4131-0.0533
		c-0.4053,0.3755-0.4287,1.0083-0.0537,1.4136c1.3525,1.459,3.0478,2.1558,4.6387,1.9112c1.2871-0.1963,2.3466-0.9839,2.9316-2.2154
		C63.1484,18.1865,63.1797,16.6914,62.5625,15.4141z M30.2988,30.8286v-8.9585c0.5479-0.2412,1.1055-0.4809,1.6875-0.7153
		c0.5703,0.23,1.1192,0.4643,1.6573,0.7012v9.0239c-0.5264,0.4184-1.0645,0.8369-1.6387,1.2549
		C31.4063,31.6997,30.8447,31.2642,30.2988,30.8286z M28.2988,29.1396c-1.5508-1.3989-2.8408-2.789-3.9121-4.1503
		c1.1787-0.7456,2.4795-1.4771,3.9121-2.1851V29.1396z M35.6436,22.7881c1.455,0.7168,2.7753,1.4575,3.9697,2.2134
		c-1.086,1.3774-2.3936,2.7846-3.9697,4.2006V22.7881z M20.4639,11.6426c0.7685-2.4195,2.54-3.8638,4.7392-3.8638
		c1.9619,0,4.1162,1.1694,6.0655,3.293c0.3789,0.4121,1.0957,0.4121,1.4726,0c1.9492-2.1236,4.1026-3.293,6.0645-3.293
		c2.1992,0,3.9716,1.4448,4.7402,3.8643c0.9053,2.852,0.3945,7.0639-2.7432,11.7373c-2.3476-1.4932-5.1396-2.9248-8.4492-4.2325
		c-0.2363-0.0927-0.5-0.0927-0.7344,0c-3.2959,1.3028-6.0781,2.73-8.4199,4.2193C20.0693,18.6987,19.5596,14.4922,20.4639,11.6426z
		 M14.7568,40.1113c-1.0449-3.0849,0.6524-8.7812,7.9737-14.0127c1.8506,2.3882,4.3261,4.8379,7.5527,7.251
		c-4.4932,3.292-7.7373,6.4111-9.9824,9.2549C17.6201,43.2627,15.5098,42.332,14.7568,40.1113z M45.6426,53.7314
		c-0.503,1.5821-1.8955,2.4903-3.8213,2.4903c0,0,0,0-0.001,0c-2.831-0.001-6.1523-1.8506-9.1113-5.0742
		c-0.1885-0.2071-0.4561-0.3243-0.7363-0.3243c-0.2803,0-0.5469,0.1172-0.7364,0.3233c-2.9609,3.2256-6.2822,5.0752-9.1142,5.0752
		c-1.9258,0-3.3184-0.9082-3.8213-2.4912c-1.083-3.4112,1.6777-10.1944,12.6719-18.3897v8.9854c0,0.5527,0.4472,1,1,1
		c0.5527,0,1-0.4473,1-1v-8.9854C43.9668,43.5371,46.7266,50.3203,45.6426,53.7314z M49.2109,40.0879
		c-0.7705,2.25-2.8925,3.1885-5.5752,2.5078c-2.2392-2.835-5.4707-5.9424-9.9414-9.2217c3.2373-2.417,5.7198-4.8711,7.5752-7.2636
		C48.583,31.3354,50.2656,37.0137,49.2109,40.0879z"/>
</g>
<g id="anemone">
</g>
<g id="gaura">
</g>
<g id="poppy">
</g>
<g id="bluestar">
</g>
<g id="hydrangea">
</g>
<g id="leadwort">
</g>
<g id="anthurium">
</g>
<g id="blossom">
</g>
<g id="lily">
</g>
<g id="tulip">
</g>
<g id="sunflower">
</g>
<g id="jasmine">
</g>
<g id="bell">
</g>
<g id="rose">
</g>
<g id="zinnia">
</g>
<g id="buttercup">
</g>
</svg>
